<svg width="873" height="178" viewBox="0 0 873 178" fill="none" xmlns="http://www.w3.org/2000/svg">
<path fill-rule="evenodd" clip-rule="evenodd" d="M146.691 64.6213C152.612 55.4579 163.304 50.876 177.943 50.876V70.3484C176.134 70.021 174.653 69.8575 173.173 69.8575C157.547 69.8575 147.677 79.0207 147.677 96.8567V139.237H127.117V51.8578H146.691V64.6213ZM248.063 139.237L216.867 101.766L203.39 116.165V139.237H182.829V25.2758H203.39V91.1296L247.35 45.6603H270.7L230.76 87.7405L272.699 139.237H248.063ZM351.494 96.0386C351.494 97.6748 351.33 100.129 351.166 102.093H282.246C284.713 114.856 295.405 123.038 310.702 123.038C320.571 123.038 328.302 119.929 334.553 113.547L345.573 126.147C337.678 135.474 325.341 140.383 310.209 140.383C280.766 140.383 261.685 121.565 261.685 95.5477C261.685 69.5301 280.93 50.876 307.083 50.876C332.743 50.876 351.494 68.712 351.494 96.0386ZM307.083 67.2393C293.76 67.2393 284.055 75.7481 282.082 88.5114H331.921C330.276 75.9118 320.571 67.2393 307.083 67.2393ZM388.945 140.383C374.305 140.383 359.666 136.128 351.771 130.565L359.666 115.02C367.397 120.092 379.24 123.692 390.26 123.692C403.255 123.692 408.683 120.092 408.683 114.038C408.683 97.3476 354.403 113.056 354.403 78.2026C354.403 61.6759 369.371 50.876 393.057 50.876C404.735 50.876 418.059 53.658 425.954 58.4033L418.059 73.9482C409.67 69.0392 401.281 67.403 392.892 67.403C380.391 67.403 374.47 71.4937 374.47 77.2208C374.47 94.8931 428.75 79.1844 428.75 113.383C428.75 129.747 413.617 140.383 388.945 140.383ZM485.892 119.929L491.649 134.492C486.714 138.419 479.312 140.383 471.91 140.383C452.665 140.383 441.645 130.238 441.645 110.929V68.8757H430.034V52.5125H441.645V32.5494H462.206V52.5125H485.727V68.8757H462.206V110.438C462.206 118.947 466.482 123.529 474.378 123.529C478.654 123.529 482.766 122.383 485.892 119.929ZM558.796 51.8578H579.357V139.237H559.783V127.947C552.875 136.292 542.677 140.383 530.669 140.383C505.01 140.383 486.258 122.711 486.258 95.5477C486.258 68.3848 505.01 50.876 530.669 50.876C541.854 50.876 551.723 54.6398 558.796 62.494V51.8578ZM532.972 122.874C547.94 122.874 559.125 112.238 559.125 95.5477C559.125 78.8572 547.94 68.2211 532.972 68.2211C518.169 68.2211 506.983 78.8572 506.983 95.5477C506.983 112.238 518.169 122.874 532.972 122.874ZM120.43 81.4752C120.43 113.987 93.8964 140.383 61.2148 140.383C28.5334 140.383 2 113.987 2 81.4752C2 48.9633 28.5334 22.5679 61.2148 22.5679C71.9843 22.5679 82.0859 25.434 90.7907 30.4409C93.5874 32.0424 95.4754 34.8475 95.8986 38.0297C96.1115 39.6309 95.9415 41.2358 95.4296 42.7244C90.2153 44.881 85.3263 46.9032 80.9977 48.6935C80.7916 48.5927 80.5875 48.4847 80.3864 48.3693C74.7442 45.1226 68.1959 43.2659 61.2148 43.2659C40.0166 43.2659 22.8061 60.3869 22.8061 81.4752C22.8061 102.564 40.0166 119.685 61.2148 119.685C81.435 119.685 98.0267 104.107 99.5149 84.3682L99.5106 84.3677C99.6115 83.0483 99.6436 81.7393 99.6099 80.4444C99.553 78.3094 99.3195 76.2177 98.9238 74.1835C98.2938 70.9526 97.2507 67.8558 95.8482 64.9542C93.817 60.7449 94.8806 55.7036 98.4415 52.6621C98.4559 52.6453 98.4725 52.631 98.4892 52.6167C100.938 50.5252 104.225 49.6865 107.383 50.3472C110.541 51.008 113.21 53.0933 114.604 55.9887C114.855 56.508 115.099 57.0314 115.335 57.5586L115.338 57.5575C116.798 60.8187 117.968 64.236 118.818 67.777C119.877 72.1872 120.434 76.7762 120.43 81.4752Z" fill="white"/>
<path fill-rule="evenodd" clip-rule="evenodd" d="M94.9906 58.6696C80.6064 66.3184 70.1039 71.902 70.0553 71.9247C65.7098 73.9403 60.5366 72.0673 58.5103 67.7443C56.4839 63.4215 58.3669 58.2752 62.7122 56.2594C62.8677 56.1872 173.911 10.2665 173.911 10.2665C175.339 9.60393 177.039 10.2195 177.705 11.6402C178.371 13.0609 177.752 14.7523 176.324 15.4146C176.324 15.4146 139.674 34.9074 109.421 50.9959C108.772 50.7128 108.091 50.4939 107.384 50.3461C104.226 49.6854 100.939 50.5241 98.4907 52.6156C98.474 52.6299 98.4574 52.6442 98.443 52.661C96.5805 54.2517 95.4014 56.3897 94.9906 58.6696Z" fill="#FF3000"/>
<path fill-rule="evenodd" clip-rule="evenodd" d="M755.002 51.857H775.563V139.237H755.989V127.946C749.081 136.291 738.882 140.382 726.875 140.382C701.215 140.382 682.464 122.71 682.464 95.5469C682.464 68.384 701.215 50.8752 726.875 50.8752C738.06 50.8752 747.929 54.639 755.002 62.4932V51.857ZM729.178 122.873C744.146 122.873 755.331 112.237 755.331 95.5469C755.331 78.8564 744.146 68.2203 729.178 68.2203C714.374 68.2203 703.189 78.8564 703.189 95.5469C703.189 112.237 714.374 122.873 729.178 122.873ZM825.54 114.514L849.723 52.3425H872.001L831.967 145.824C828.729 153.267 824.653 158.905 819.74 162.737C814.826 166.57 808.294 168.486 800.142 168.486H789.254V150.49H798.969C802.319 150.49 805.139 149.74 807.428 148.24C809.718 146.741 811.532 144.38 812.872 141.158L814.715 136.326L778.701 52.3425H801.649L825.54 114.514ZM617.214 92.9053V139.229H594.602V20.0864H643.177C651.776 20.0864 659.286 21.6139 665.707 24.6687C672.128 27.7238 677.153 31.973 680.782 37.4163C684.411 42.8596 686.226 49.1918 686.226 56.4125C686.226 63.6332 684.411 69.9932 680.782 75.4921C677.153 80.991 672.128 85.2679 665.707 88.3228C659.286 91.3778 651.776 92.9053 643.177 92.9053H617.214ZM617.214 73.909H643.177C649.431 73.909 654.344 72.3539 657.918 69.2434C661.491 66.1327 663.278 61.8558 663.278 56.4125C663.278 51.0803 661.491 46.8588 657.918 43.7483C654.344 40.6378 649.431 39.0827 643.177 39.0827H617.214V73.909Z" fill="white"/>
</svg>
