<svg width="789" height="178" viewBox="0 0 789 178" fill="none" xmlns="http://www.w3.org/2000/svg">
<g clip-path="url(#clip0_106_212)">
<path d="M199.3 74.7178V57.2581H172.609V176.789H200.646V118.815C200.646 94.4158 214.103 81.8807 235.411 81.8807C237.429 81.8807 239.448 82.1045 241.915 82.5522V55.915C221.953 55.915 207.374 62.1826 199.3 74.7178Z" fill="white"/>
<path d="M337.529 176.79H371.122L313.935 106.345L368.396 48.7806H336.556L276.613 110.981V20.895H248.576V176.79H276.613V145.228L294.991 125.53L337.529 176.79V176.79Z" fill="white"/>
<path d="M478.568 117.695C478.568 80.3138 452.999 55.915 418.01 55.915C382.348 55.915 356.105 81.433 356.105 117.024C356.105 152.615 382.123 178.356 422.271 178.356C442.906 178.356 459.728 171.641 470.494 158.882L455.466 141.646C446.943 150.376 436.402 154.629 422.944 154.629C402.085 154.629 387.506 143.437 384.142 125.977H478.12C478.344 123.291 478.569 119.934 478.569 117.695H478.568ZM418.01 78.2992C436.402 78.2992 449.635 90.1628 451.878 107.399H383.918C386.609 89.939 399.842 78.2992 418.01 78.2992Z" fill="white"/>
<path d="M529.633 178.356C563.277 178.356 583.911 163.807 583.911 141.422C583.911 94.6396 509.895 116.128 509.895 91.9535C509.895 84.119 517.97 78.523 535.016 78.523C546.455 78.523 557.894 80.7614 569.333 87.4767L580.098 66.2118C569.333 59.7203 551.165 55.915 535.24 55.915C502.942 55.915 482.532 70.6885 482.532 93.2966C482.532 140.975 556.548 119.486 556.548 142.318C556.548 150.6 549.146 155.525 531.427 155.525C516.4 155.525 500.251 150.6 489.709 143.661L478.943 164.926C489.709 172.536 509.671 178.356 529.633 178.356Z" fill="white"/>
<path d="M661.828 150.376C657.567 153.734 651.959 155.301 646.128 155.301C635.362 155.301 629.53 149.033 629.53 137.393V80.5375H661.604V58.1533H629.53V30.8447H601.494V58.1533H585.662V80.5375H601.494V138.065C601.494 164.478 616.521 178.356 642.763 178.356C652.856 178.356 662.95 175.67 669.678 170.298L661.828 150.376Z" fill="white"/>
<path d="M761.238 57.2581V71.8078C751.594 61.0634 738.136 55.915 722.885 55.915C687.895 55.915 662.326 79.8661 662.326 117.024C662.326 154.181 687.895 178.356 722.885 178.356C739.258 178.356 753.164 172.76 762.584 161.344V176.789H789.275V57.2581H761.238ZM726.025 154.406C705.839 154.406 690.587 139.856 690.587 117.024C690.587 94.1922 705.839 79.6425 726.025 79.6425C746.435 79.6425 761.687 94.1922 761.687 117.024C761.687 139.856 746.435 154.406 726.025 154.406Z" fill="white"/>
<path fill-rule="evenodd" clip-rule="evenodd" d="M156.545 65.0548C161.008 75.0553 163.489 86.1276 163.489 97.7735C163.489 142.249 127.308 178.356 82.7444 178.356C38.1801 178.356 2 142.248 2 97.7735C2 53.2986 38.1804 17.1909 82.7444 17.1909C97.4294 17.1909 111.204 21.1117 123.074 27.9609C126.887 30.1516 129.462 33.9889 130.039 38.3422C130.616 42.6956 129.13 47.0691 126.019 50.1742C126 50.1976 125.979 50.2188 125.957 50.2399C121.431 54.7565 114.431 55.6778 108.886 52.4862C101.193 48.045 92.2635 45.505 82.7444 45.505C53.8385 45.505 30.3706 68.9259 30.3706 97.7738C30.3706 126.622 53.8385 150.043 82.7444 150.043C111.65 150.043 135.118 126.622 135.118 97.7738C135.118 90.1243 133.468 82.8563 130.504 76.3054L156.546 65.0551L156.545 65.0548Z" fill="white"/>
<path fill-rule="evenodd" clip-rule="evenodd" d="M84.7839 63.281C84.9959 63.1823 236.414 0.364438 236.414 0.364438C238.361 -0.541742 240.679 0.300328 241.587 2.24374C242.495 4.18723 241.652 6.50083 239.704 7.40701C239.704 7.40701 95.0093 84.612 94.7971 84.7104C88.8717 87.4679 81.8177 84.9056 79.0546 78.992C76.2915 73.0785 78.859 66.0386 84.7844 63.2811L84.7839 63.281Z" fill="#FF3000"/>
<path fill-rule="evenodd" clip-rule="evenodd" d="M133.571 58.2962C136.91 55.4352 141.392 54.2877 145.699 55.1916C150.005 56.0956 153.644 58.9481 155.545 62.909C161.491 75.2459 164.367 89.257 163.253 103.877L134.964 101.73C135.686 92.2532 133.823 83.1706 129.97 75.1732C127.2 69.4153 128.651 62.519 133.506 58.3582C133.526 58.3352 133.548 58.3157 133.571 58.2962Z" fill="white"/>
</g>
<defs>
<clipPath id="clip0_106_212">
<rect width="789" height="178" fill="white"/>
</clipPath>
</defs>
</svg>
